<svg width="32" height="32" viewBox="0 0 32 32" fill="none" xmlns="http://www.w3.org/2000/svg">
<g clip-path="url(#clip0_267_2142)">
<rect width="32" height="32" fill="white"/>
<path d="M26 35L-11 35L-11 -2L26 35Z" fill="#ED1C24"/>
<path d="M-15 -6H32V41L-15 -6Z" fill="#1C387E"/>
<path d="M23.0616 21H-24V35H37L23.0616 21Z" fill="#40B93C"/>
<path d="M16.0006 5C9.9251 5 5 9.92513 5 16.0009C5 22.0748 9.9251 27 16.0006 27V24.8005V18.2008C16.0006 16.9902 16.9901 16.0009 18.1992 16.0009H24.8001H27C27 9.92513 22.0753 5 16.0006 5Z" fill="white"/>
<path d="M24.0004 19.8466C25.1871 19.8466 26.1528 20.8123 26.1528 21.9998C26.1528 23.1877 25.1871 24.1534 24.0004 24.1534C22.8139 24.1534 21.8472 23.1877 21.8472 21.9998C21.8472 20.8123 22.8139 19.8466 24.0004 19.8466ZM24.0004 19C22.3438 19 21 20.3435 21 21.9998C21 23.657 22.3438 25 24.0004 25C25.6575 25 27 23.657 27 21.9998C27 20.3435 25.6575 19 24.0004 19Z" fill="white"/>
<path d="M18 18H21V19H18V18Z" fill="white"/>
</g>
<defs>
<clipPath id="clip0_267_2142">
<rect width="32" height="32" fill="white"/>
</clipPath>
</defs>
</svg>
