<svg width="171" height="70" viewBox="0 0 171 70" fill="none" xmlns="http://www.w3.org/2000/svg">
<path d="M63.5029 29.8564C63.5029 25.9975 66.6335 22.8679 70.4917 22.8679C74.3529 22.8679 77.4822 25.9975 77.4822 29.8564C77.4822 33.7159 74.3529 36.8452 70.4917 36.8452C66.6335 36.8452 63.5029 33.7159 63.5029 29.8564Z" fill="#FCD205"/>
<path d="M20.9659 46.0316V66.998H0L20.9659 46.0316Z" fill="#1C387E"/>
<path d="M31.4489 46.0316V66.998H10.4829L31.4489 46.0316Z" fill="#3871C1"/>
<path d="M43.9194 33.5611V44.0448H33.436L43.9194 33.5611Z" fill="#110B0D"/>
<path d="M77.482 -0.000102997V20.9666H56.5146L77.482 -0.000102997Z" fill="#ED1C24"/>
<path d="M46.6805 48.6519V46.0316H33.5767V66.998H36.1665L38.8175 64.3464V66.998H54.5434V46.0316H49.3016L46.6805 48.6519Z" fill="#FCD205"/>
<path d="M46.6802 44.0439V38.8026H51.9224L46.6802 44.0439Z" fill="#8D198F"/>
<path d="M46.6802 38.8026V33.5611H51.9224L46.6802 38.8026Z" fill="#8D198F"/>
<path d="M72.2392 38.8023H54.543V44.0439H77.4817L72.2392 38.8023Z" fill="#40B93C"/>
<path d="M54.543 26.3625V36.8452H65.0256L54.543 26.3625Z" fill="#110B0D"/>
<path d="M57.2847 25.5026C57.2847 24.0475 58.4646 22.8679 59.9187 22.8679C61.3745 22.8679 62.5537 24.0475 62.5537 25.5026C62.5537 26.9577 61.3745 28.1373 59.9187 28.1373C58.4646 28.1373 57.2847 26.9577 57.2847 25.5026Z" fill="#66CEF5"/>
<path d="M66.9976 56.5144H77.482C77.482 50.7248 72.7881 46.0312 66.9976 46.0312C61.2078 46.0312 56.5146 50.7248 56.5146 56.5144C56.5146 62.3039 61.2078 66.998 66.9976 66.998V56.5144Z" fill="#ED1C24"/>
<path d="M69.6191 61.7558C69.6191 60.3097 70.793 59.1364 72.2395 59.1364C73.6875 59.1364 74.8606 60.3097 74.8606 61.7558C74.8606 63.204 73.6875 64.3772 72.2395 64.3772C70.793 64.3772 69.6191 63.204 69.6191 61.7558Z" fill="#ED1C24"/>
<path d="M89.2544 40.6797V35.6608L89.1935 35.6455L88.4591 37.5581L87.8928 38.9352H86.3017L85.7047 37.4664L84.9853 35.6302L84.9244 35.6455V40.6797H82.7207V30.0298H84.7557L85.9952 32.9985L87.0513 35.6608H87.1278L88.153 32.9832L89.3775 30.0298H91.4581V40.6797H89.2544Z" fill="#110B0D"/>
<path d="M96.0498 42.0111C95.8556 42.6232 95.56 43.064 95.162 43.3347C94.7641 43.6048 94.2801 43.7399 93.7086 43.7399H92.959V41.9038H93.4025C93.8205 41.9038 94.1066 41.6437 94.2593 41.1235L94.5046 40.2818L92.1787 33.1053H94.4739L94.994 35.5536L95.4685 37.65H95.5447L96.0345 35.5689L96.6464 33.1053H98.8804L96.0498 42.0111Z" fill="#110B0D"/>
<path d="M101.994 33.0138C102.861 33.0138 103.53 33.1996 103.999 33.572C104.468 33.9448 104.703 34.4979 104.703 35.2322C104.703 35.4669 104.637 35.737 104.504 36.0434C104.371 36.3493 104.116 36.5892 103.739 36.7624L103.724 36.8083C104.111 36.9515 104.378 37.1632 104.527 37.4431C104.675 37.7241 104.748 38.0426 104.748 38.3998C104.748 39.1547 104.489 39.7364 103.969 40.1443C103.448 40.5522 102.76 40.7561 101.903 40.7561C101.138 40.7561 100.533 40.6186 100.09 40.3433C99.6458 40.0679 99.3015 39.67 99.0566 39.1498L100.678 38.2928C100.76 38.4868 100.918 38.6422 101.153 38.7594C101.388 38.8768 101.622 38.9352 101.857 38.9352C102.102 38.9352 102.288 38.869 102.415 38.7363C102.543 38.6037 102.607 38.4509 102.607 38.2775C102.607 38.0018 102.53 37.8109 102.377 37.7035C102.224 37.5966 102.025 37.5428 101.78 37.5428H100.999V36.0739H101.873C102.106 36.0739 102.28 36.0128 102.392 35.8907C102.505 35.7676 102.561 35.605 102.561 35.4006C102.561 35.2274 102.494 35.0921 102.361 34.9951C102.229 34.8985 102.045 34.8496 101.811 34.8496C101.637 34.8496 101.443 34.9108 101.229 35.0336C101.015 35.1557 100.847 35.2887 100.725 35.4312L99.2862 34.5285C99.5202 34.0492 99.873 33.6764 100.342 33.4115C100.811 33.1462 101.362 33.0138 101.994 33.0138Z" fill="#110B0D"/>
<path d="M111.445 39.0887C111.18 39.6596 110.787 40.0805 110.267 40.3506C109.746 40.6213 109.18 40.7561 108.568 40.7561C108.007 40.7561 107.535 40.6695 107.153 40.496C106.77 40.3226 106.459 40.0705 106.219 39.7384C105.98 39.4076 105.808 39.0043 105.706 38.53C105.605 38.0556 105.554 37.5122 105.554 36.9C105.554 36.3088 105.605 35.7734 105.706 35.2938C105.808 34.8138 105.977 34.406 106.212 34.0693C106.447 33.7326 106.757 33.4723 107.145 33.289C107.533 33.1053 108.017 33.0138 108.599 33.0138C109.211 33.0138 109.711 33.1155 110.098 33.3196C110.486 33.5237 110.789 33.7965 111.009 34.138C111.229 34.4802 111.379 34.8802 111.46 35.3394C111.541 35.7982 111.583 36.2881 111.583 36.8083V37.4053H107.726V37.5275C107.726 37.7009 107.737 37.8639 107.757 38.0171C107.777 38.1699 107.818 38.3054 107.88 38.4226C107.941 38.5399 108.025 38.6319 108.132 38.6981C108.239 38.7645 108.379 38.7977 108.553 38.7977C108.767 38.7977 108.961 38.7492 109.134 38.6522C109.307 38.5552 109.481 38.3792 109.655 38.1241L111.445 39.0887ZM109.333 36.0587C109.333 35.9261 109.323 35.7934 109.303 35.6608C109.282 35.5285 109.244 35.4108 109.188 35.3087C109.132 35.207 109.05 35.1254 108.943 35.0642C108.836 35.003 108.695 34.9717 108.522 34.9717C108.379 34.9717 108.257 35.0053 108.155 35.0713C108.053 35.138 107.971 35.2223 107.91 35.324C107.849 35.4261 107.806 35.5438 107.78 35.6761C107.755 35.8087 107.737 35.9363 107.726 36.0587H109.333Z" fill="#110B0D"/>
<path d="M114.637 37.1143L116.947 33.1053H118.83V40.6797H116.764V37.0226H116.718L114.468 40.6797H112.541V33.1053H114.606V37.1143H114.637ZM114.79 29.8615C114.79 29.9737 114.813 30.0938 114.859 30.2213C114.904 30.3489 114.966 30.4683 115.043 30.5805C115.119 30.6928 115.213 30.7849 115.326 30.8557C115.438 30.9274 115.565 30.9632 115.708 30.9632C115.861 30.9632 115.991 30.9274 116.098 30.8557C116.205 30.7849 116.297 30.6928 116.374 30.5805C116.45 30.4683 116.506 30.3489 116.542 30.2213C116.578 30.0938 116.596 29.9737 116.596 29.8615H118.187C118.166 30.1162 118.108 30.3921 118.011 30.6877C117.914 30.9836 117.768 31.2587 117.575 31.5138C117.381 31.7689 117.131 31.9805 116.825 32.1485C116.519 32.3172 116.147 32.4016 115.708 32.4016C115.249 32.4016 114.864 32.3172 114.553 32.1485C114.241 31.9805 113.989 31.7689 113.796 31.5138C113.601 31.2587 113.459 30.9836 113.367 30.6877C113.275 30.3921 113.224 30.1162 113.214 29.8615H114.79Z" fill="#110B0D"/>
<path d="M87.7857 53.8012V48.002H87.7704L84.802 53.8012H82.7207V43.1513H84.9244V49.3333H84.9551L88 43.1513H90.0044V53.8012H87.7857Z" fill="#110B0D"/>
<path d="M93.9661 46.1352C94.6089 46.1352 95.1698 46.2833 95.6494 46.5786C96.1287 46.8749 96.4705 47.3135 96.6746 47.895L94.8688 48.7669C94.7565 48.5221 94.6395 48.3487 94.5168 48.2467C94.3946 48.1448 94.2463 48.0936 94.0729 48.0936C93.6855 48.0936 93.4378 48.2723 93.331 48.6291C93.2239 48.9865 93.1708 49.4608 93.1708 50.0521C93.1708 50.6949 93.229 51.1668 93.3463 51.4678C93.4637 51.7687 93.7062 51.9191 94.0729 51.9191C94.2569 51.9191 94.4096 51.8657 94.5327 51.7587C94.6549 51.6511 94.7719 51.4857 94.8841 51.2612L96.6899 52.1487C96.4858 52.7097 96.147 53.1383 95.6725 53.4342C95.1977 53.7298 94.6395 53.8776 93.997 53.8776C93.4259 53.8776 92.9501 53.7836 92.5702 53.5947C92.1902 53.406 91.8865 53.141 91.6589 52.7991C91.4304 52.4572 91.2685 52.0517 91.1725 51.5824C91.0763 51.1133 91.0283 50.6031 91.0283 50.0521C91.0283 49.5014 91.0763 48.9865 91.1725 48.5069C91.2685 48.0272 91.4304 47.6116 91.6589 47.2597C91.8865 46.9078 92.1878 46.6324 92.5623 46.4335C92.9375 46.2345 93.4052 46.1352 93.9661 46.1352Z" fill="#110B0D"/>
<path d="M101.171 47.9561V53.8012H99.0893V47.9561H97.2227V46.2269H103.052V47.9561H101.171Z" fill="#110B0D"/>
<path d="M106.656 46.1199C107.36 46.1199 107.918 46.2574 108.331 46.5329C108.745 46.8082 109.038 47.1549 109.211 47.5735C109.354 47.9001 109.446 48.2697 109.487 48.6829C109.527 49.0957 109.548 49.5472 109.548 50.0368C109.548 50.5775 109.519 51.0472 109.463 51.4449C109.408 51.8424 109.308 52.1895 109.165 52.4852C108.9 53.0263 108.535 53.3983 108.072 53.6022C107.607 53.8062 107.084 53.9081 106.503 53.9081C105.982 53.9081 105.541 53.8268 105.179 53.6636C104.817 53.5002 104.519 53.271 104.284 52.9747C104.039 52.6485 103.868 52.2457 103.772 51.7661C103.675 51.2867 103.626 50.71 103.626 50.0368C103.636 49.6086 103.662 49.1778 103.703 48.744C103.744 48.3105 103.82 47.9612 103.932 47.6957C104.146 47.2061 104.475 46.8211 104.92 46.5404C105.363 46.2601 105.942 46.1199 106.656 46.1199ZM106.633 48.0936C106.299 48.0936 106.061 48.2723 105.92 48.6291C105.86 48.8025 105.819 49.0042 105.799 49.2336C105.778 49.4635 105.768 49.7412 105.768 50.0673C105.768 50.3224 105.776 50.5676 105.791 50.8021C105.806 51.0369 105.849 51.2406 105.92 51.4142C106.041 51.761 106.269 51.9344 106.601 51.9344C106.673 51.9344 106.746 51.9268 106.822 51.9115C106.897 51.8963 106.971 51.8604 107.042 51.8046C107.112 51.7484 107.176 51.6664 107.231 51.5595C107.287 51.4521 107.329 51.3123 107.36 51.1389C107.38 50.9961 107.398 50.82 107.413 50.6108C107.429 50.4019 107.437 50.1597 107.437 49.884C107.437 49.3535 107.385 48.9406 107.285 48.6444C107.153 48.2774 106.936 48.0936 106.633 48.0936Z" fill="#110B0D"/>
<path d="M112.764 46.7929C112.937 46.569 113.149 46.4056 113.4 46.3033C113.649 46.2012 113.886 46.1505 114.111 46.1505C114.672 46.1505 115.11 46.278 115.427 46.5329C115.743 46.788 115.98 47.1091 116.138 47.4967C116.296 47.8848 116.396 48.3078 116.437 48.7669C116.477 49.2259 116.498 49.6595 116.498 50.0673C116.498 50.5267 116.472 50.9831 116.421 51.4368C116.37 51.8909 116.26 52.2995 116.092 52.6616C115.924 53.0236 115.682 53.3193 115.365 53.5487C115.049 53.7783 114.626 53.8928 114.096 53.8928C113.994 53.8928 113.881 53.8775 113.758 53.8471C113.636 53.8164 113.514 53.7734 113.391 53.7172C113.269 53.6611 113.154 53.5947 113.047 53.5183C112.94 53.4415 112.851 53.3524 112.779 53.2502L112.718 53.2654V56.8771H110.576V46.2269H112.718V46.7623L112.764 46.7929ZM113.514 51.8883C113.697 51.8883 113.842 51.8298 113.95 51.7122C114.057 51.5953 114.139 51.4476 114.195 51.2689C114.251 51.0904 114.287 50.8914 114.302 50.6719C114.317 50.4527 114.325 50.241 114.325 50.0368C114.325 49.7614 114.317 49.5067 114.302 49.2719C114.287 49.0372 114.251 48.8384 114.195 48.6749C114.139 48.5118 114.06 48.3842 113.957 48.2927C113.856 48.2008 113.718 48.1552 113.545 48.1552C113.208 48.1552 112.986 48.3131 112.879 48.6291C112.772 48.9456 112.718 49.3995 112.718 49.9909C112.718 50.1952 112.726 50.4095 112.741 50.6336C112.756 50.8582 112.79 51.0625 112.841 51.2459C112.891 51.4295 112.971 51.5824 113.078 51.7049C113.185 51.8272 113.33 51.8883 113.514 51.8883Z" fill="#110B0D"/>
<path d="M119.587 50.2361L121.897 46.2269H123.779V53.8012H121.714V50.1438H121.668L119.419 53.8012H117.49V46.2269H119.556V50.2361H119.587Z" fill="#110B0D"/>
<path d="M127.079 50.2361L129.389 46.2269H131.272V53.8012H129.206V50.1438H129.16L126.91 53.8012H124.982V46.2269H127.048V50.2361H127.079Z" fill="#110B0D"/>
<path d="M82.7666 66.9227V56.2729H88.9635V58.3232H84.9853V60.5265H88.4135V62.5618H84.9853V64.8265H88.9635V66.9227H82.7666Z" fill="#110B0D"/>
<path d="M89.8623 66.9227V59.3788H92.0041V62.2558H92.3409C92.4426 62.2558 92.5477 62.2455 92.6548 62.2252C92.762 62.2046 92.864 62.1562 92.9609 62.0797C93.0579 62.0033 93.1494 61.8911 93.2365 61.7432C93.3225 61.5954 93.3973 61.3988 93.4582 61.1537L93.9014 59.3636H95.9524L95.3865 61.5671C95.2943 61.9343 95.149 62.2432 94.9501 62.493C94.7511 62.7431 94.514 62.9086 94.2385 62.9905C94.5752 63.072 94.8375 63.2476 95.0266 63.518C95.215 63.7884 95.3555 64.1126 95.4473 64.4899L96.0899 66.9227H93.9327L93.5341 65.1323C93.4732 64.8874 93.4045 64.6886 93.3283 64.5358C93.2518 64.3827 93.1674 64.263 93.0759 64.176C92.9834 64.0894 92.8817 64.0335 92.7694 64.0079C92.6572 63.9824 92.5348 63.9694 92.4021 63.9694H92.0041V66.9227H89.8623Z" fill="#110B0D"/>
<path d="M100.383 66.9227V66.3051L100.322 66.2896C100.128 66.5467 99.8828 66.7294 99.5872 66.8377C99.2916 66.9453 99.0266 66.9991 98.7913 66.9991C98.0467 66.9991 97.4913 66.8005 97.1239 66.4025C96.7566 66.0046 96.5732 65.4233 96.5732 64.658C96.5732 64.342 96.6263 64.0435 96.7338 63.7632C96.8409 63.4826 97.0015 63.235 97.2154 63.0211C97.43 62.8065 97.6977 62.6382 98.0188 62.516C98.3402 62.3933 98.7202 62.3322 99.159 62.3322H100.383V61.8884C100.383 61.7256 100.322 61.5622 100.2 61.3988C100.077 61.2356 99.8423 61.1537 99.4957 61.1537C99.2304 61.1537 98.996 61.1975 98.7913 61.2839C98.5875 61.3709 98.4141 61.5367 98.2712 61.7811L96.726 60.8018C97.0117 60.2413 97.3967 59.8456 97.8811 59.616C98.3654 59.3866 98.9243 59.272 99.5566 59.272C99.9851 59.272 100.383 59.3128 100.75 59.3943C101.117 59.476 101.431 59.6111 101.691 59.7998C101.951 59.9884 102.156 60.2386 102.304 60.5498C102.451 60.8607 102.526 61.2509 102.526 61.7199V66.9227H100.383ZM100.383 63.8316H99.4498C99.1641 63.8316 98.96 63.8924 98.8375 64.0132C98.7151 64.1341 98.6539 64.2955 98.6539 64.4968C98.6539 64.6383 98.7124 64.7769 98.83 64.9131C98.9471 65.0493 99.159 65.117 99.4651 65.117C99.7093 65.117 99.9239 65.0466 100.108 64.9058C100.291 64.7646 100.383 64.5577 100.383 64.2853V63.8316Z" fill="#110B0D"/>
<path d="M107.127 61.0773V66.9227H105.046V61.0773H103.179V59.3484H109.009V61.0773H107.127Z" fill="#110B0D"/>
<path d="M115.441 65.3316C115.176 65.903 114.784 66.3235 114.263 66.5936C113.743 66.8642 113.177 66.9991 112.564 66.9991C112.004 66.9991 111.532 66.9127 111.149 66.7389C110.767 66.566 110.455 66.3135 110.216 65.9816C109.976 65.6505 109.805 65.2472 109.703 64.7729C109.602 64.2986 109.55 63.7552 109.55 63.1433C109.55 62.5518 109.602 62.0162 109.703 61.5367C109.805 61.0569 109.973 60.649 110.208 60.3124C110.443 59.9758 110.754 59.7154 111.141 59.532C111.529 59.3484 112.014 59.2567 112.595 59.2567C113.207 59.2567 113.707 59.3586 114.095 59.5626C114.483 59.7669 114.786 60.0396 115.005 60.3811C115.225 60.7232 115.375 61.1231 115.457 61.5824C115.538 62.0412 115.58 62.5311 115.58 63.0517V63.6482H111.723V63.7705C111.723 63.9441 111.733 64.1073 111.754 64.2601C111.774 64.4131 111.815 64.5486 111.876 64.666C111.937 64.7829 112.022 64.8748 112.129 64.9413C112.236 65.0074 112.376 65.0406 112.549 65.0406C112.764 65.0406 112.957 64.9921 113.131 64.8956C113.304 64.7982 113.478 64.6221 113.651 64.3673L115.441 65.3316ZM113.33 62.3016C113.33 62.1692 113.32 62.0366 113.299 61.9037C113.279 61.7715 113.241 61.6539 113.185 61.5519C113.129 61.45 113.047 61.3683 112.94 61.3071C112.833 61.246 112.692 61.2152 112.519 61.2152C112.376 61.2152 112.253 61.2483 112.152 61.3144C112.05 61.3811 111.968 61.4652 111.907 61.5671C111.846 61.6692 111.802 61.7868 111.776 61.919C111.751 62.0518 111.733 62.1794 111.723 62.3016H113.33Z" fill="#110B0D"/>
<path d="M118.739 59.9147C118.912 59.6902 119.124 59.5271 119.374 59.4247C119.624 59.3228 119.861 59.272 120.086 59.272C120.646 59.272 121.085 59.3996 121.402 59.6543C121.718 59.9094 121.955 60.2309 122.113 60.6182C122.271 61.0062 122.371 61.4294 122.412 61.8884C122.452 62.3475 122.473 62.7813 122.473 63.1892C122.473 63.6482 122.447 64.1046 122.396 64.5584C122.345 65.0128 122.235 65.4206 122.067 65.7827C121.899 66.1448 121.657 66.4406 121.34 66.6702C121.024 66.8994 120.6 67.0144 120.071 67.0144C119.968 67.0144 119.856 66.9991 119.734 66.9685C119.611 66.938 119.489 66.8948 119.366 66.8383C119.244 66.7825 119.129 66.7161 119.022 66.6397C118.915 66.5629 118.826 66.4743 118.755 66.372L118.693 66.3872V69.9985H116.551V59.3484H118.693V59.8841L118.739 59.9147ZM119.489 65.0097C119.673 65.0097 119.818 64.9516 119.925 64.834C120.032 64.7167 120.114 64.569 120.169 64.3903C120.226 64.2122 120.262 64.0129 120.277 63.7937C120.292 63.5741 120.3 63.3625 120.3 63.1586C120.3 62.8829 120.292 62.6285 120.277 62.3933C120.262 62.1588 120.226 61.9598 120.169 61.7965C120.114 61.6333 120.034 61.5057 119.932 61.4141C119.831 61.3224 119.692 61.2766 119.519 61.2766C119.183 61.2766 118.961 61.4347 118.854 61.7506C118.747 62.0671 118.693 62.5208 118.693 63.1128C118.693 63.3167 118.7 63.531 118.716 63.7552C118.731 63.9797 118.764 64.1837 118.815 64.3673C118.866 64.5511 118.945 64.7038 119.053 64.8265C119.16 64.9486 119.305 65.0097 119.489 65.0097Z" fill="#110B0D"/>
<path d="M125.562 63.3575L127.873 59.3484H129.755V66.9227H127.689V63.2656H127.643L125.394 66.9227H123.466V59.3484H125.532V63.3575H125.562Z" fill="#110B0D"/>
<path d="M134.759 66.9227V63.9082H133.046V66.9227H130.965V59.3484H133.046V62.2864H134.759V59.3484H136.841V66.9227H134.759Z" fill="#110B0D"/>
<path d="M141.317 59.7001C141.755 59.7001 142.123 59.7719 142.418 59.9147C142.714 60.0575 142.964 60.2462 143.168 60.4807C143.433 60.8075 143.617 61.1998 143.719 61.6589C143.821 62.1183 143.872 62.6128 143.872 63.1433C143.872 63.9491 143.795 64.6049 143.643 65.1095C143.49 65.6146 143.26 66.0148 142.954 66.3108C142.689 66.566 142.375 66.7497 142.013 66.8616C141.651 66.9738 141.23 67.0297 140.75 67.0297C140.21 67.0297 139.766 66.9612 139.42 66.823C139.072 66.6855 138.797 66.4896 138.593 66.2345C138.297 65.8773 138.108 65.3874 138.027 64.7654C137.945 64.1432 137.904 63.4645 137.904 62.7301C137.904 62.2405 137.912 61.7965 137.927 61.3988C137.943 61.0009 137.971 60.6288 138.012 60.2817C138.062 59.8226 138.138 59.42 138.24 59.073C138.341 58.7262 138.47 58.4177 138.626 58.1469C138.783 57.8768 138.976 57.64 139.204 57.4357C139.432 57.2315 139.703 57.0477 140.016 56.8847C140.23 56.7831 140.429 56.6934 140.613 56.617C140.796 56.5406 140.993 56.4664 141.202 56.3951C141.411 56.3236 141.646 56.242 141.906 56.1502C142.166 56.0585 142.479 55.936 142.847 55.7832C142.959 56.0483 143.071 56.3136 143.184 56.5787C143.296 56.8442 143.408 57.1092 143.52 57.3743C143.061 57.5783 142.661 57.747 142.319 57.8792C141.977 58.0121 141.679 58.1343 141.424 58.2466C141.189 58.3489 140.99 58.4505 140.827 58.5524C140.664 58.6547 140.526 58.777 140.414 58.9202C140.302 59.063 140.215 59.2284 140.154 59.4171C140.092 59.6061 140.046 59.833 140.016 60.0981L140.077 60.1289C140.271 59.9552 140.488 59.8403 140.727 59.7845C140.967 59.7284 141.164 59.7001 141.317 59.7001ZM140.895 61.6589C140.762 61.6589 140.639 61.6894 140.525 61.7506C140.412 61.812 140.309 61.9294 140.217 62.103C140.165 62.1947 140.124 62.3322 140.093 62.516C140.062 62.6996 140.046 62.9905 140.046 63.3881C140.046 63.6226 140.057 63.8422 140.078 64.0462C140.098 64.2501 140.139 64.4235 140.201 64.5663C140.262 64.7091 140.348 64.8241 140.456 64.9107C140.564 64.9975 140.711 65.0406 140.895 65.0406C141.236 65.0406 141.457 64.9085 141.56 64.6427C141.642 64.4899 141.691 64.3039 141.707 64.0843C141.722 63.8648 141.73 63.6432 141.73 63.4188C141.73 62.7966 141.678 62.3528 141.575 62.087C141.462 61.802 141.236 61.6589 140.895 61.6589Z" fill="#110B0D"/>
<path d="M147.907 68.254C147.713 68.8661 147.417 69.307 147.019 69.5776C146.622 69.8477 146.137 69.9829 145.566 69.9829H144.816V68.1467H145.26C145.678 68.1467 145.964 67.8866 146.117 67.3665L146.361 66.525L144.036 59.3484H146.331L146.851 61.7965L147.325 63.893H147.402L147.891 61.812L148.504 59.3484H150.738L147.907 68.254Z" fill="#110B0D"/>
<path d="M153.625 59.9147C153.798 59.6902 154.01 59.5271 154.26 59.4247C154.51 59.3228 154.747 59.272 154.972 59.272C155.533 59.272 155.972 59.3996 156.288 59.6543C156.604 59.9094 156.841 60.2309 156.999 60.6182C157.157 61.0062 157.256 61.4294 157.298 61.8884C157.338 62.3475 157.359 62.7813 157.359 63.1892C157.359 63.6482 157.333 64.1046 157.282 64.5584C157.231 65.0128 157.122 65.4206 156.953 65.7827C156.785 66.1448 156.543 66.4406 156.226 66.6702C155.91 66.8994 155.487 67.0144 154.956 67.0144C154.854 67.0144 154.742 66.9991 154.62 66.9685C154.498 66.938 154.375 66.8948 154.252 66.8383C154.13 66.7825 154.015 66.7161 153.908 66.6397C153.801 66.5629 153.711 66.4743 153.64 66.372L153.579 66.3872V69.9985H151.437V59.3484H153.579V59.8841L153.625 59.9147ZM154.375 65.0097C154.558 65.0097 154.704 64.9516 154.811 64.834C154.918 64.7167 155 64.569 155.055 64.3903C155.112 64.2122 155.148 64.0129 155.163 63.7937C155.179 63.5741 155.186 63.3625 155.186 63.1586C155.186 62.8829 155.179 62.6285 155.163 62.3933C155.148 62.1588 155.112 61.9598 155.055 61.7965C155 61.6333 154.921 61.5057 154.819 61.4141C154.717 61.3224 154.579 61.2766 154.406 61.2766C154.069 61.2766 153.847 61.4347 153.74 61.7506C153.633 62.0671 153.579 62.5208 153.579 63.1128C153.579 63.3167 153.587 63.531 153.602 63.7552C153.617 63.9797 153.65 64.1837 153.702 64.3673C153.752 64.5511 153.832 64.7038 153.939 64.8265C154.046 64.9486 154.191 65.0097 154.375 65.0097Z" fill="#110B0D"/>
<path d="M160.439 61.2307V66.9227H158.358V59.3484H163.729V61.2307H160.439Z" fill="#110B0D"/>
<path d="M168.077 66.9227V66.3051L168.017 66.2896C167.822 66.5467 167.578 66.7294 167.282 66.8377C166.986 66.9453 166.72 66.9991 166.486 66.9991C165.741 66.9991 165.186 66.8005 164.818 66.4025C164.451 66.0046 164.268 65.4233 164.268 64.658C164.268 64.342 164.321 64.0435 164.428 63.7632C164.535 63.4826 164.696 63.235 164.91 63.0211C165.124 62.8065 165.392 62.6382 165.713 62.516C166.035 62.3933 166.415 62.3322 166.854 62.3322H168.077V61.8884C168.077 61.7256 168.017 61.5622 167.893 61.3988C167.771 61.2356 167.536 61.1537 167.19 61.1537C166.924 61.1537 166.69 61.1975 166.486 61.2839C166.282 61.3709 166.108 61.5367 165.966 61.7811L164.42 60.8018C164.706 60.2413 165.091 59.8456 165.576 59.616C166.06 59.3866 166.619 59.272 167.251 59.272C167.68 59.272 168.077 59.3128 168.445 59.3943C168.812 59.476 169.126 59.6111 169.386 59.7998C169.646 59.9884 169.85 60.2386 169.998 60.5498C170.146 60.8607 170.22 61.2509 170.22 61.7199V66.9227H168.077ZM168.077 63.8316H167.144C166.858 63.8316 166.655 63.8924 166.532 64.0132C166.409 64.1341 166.348 64.2955 166.348 64.4968C166.348 64.6383 166.407 64.7769 166.524 64.9131C166.642 65.0493 166.854 65.117 167.159 65.117C167.404 65.117 167.619 65.0466 167.803 64.9058C167.986 64.7646 168.077 64.5577 168.077 64.2853V63.8316Z" fill="#110B0D"/>
</svg>
